<?xml version="1.0" encoding="UTF-8" standalone="no"?><svg xmlns="http://www.w3.org/2000/svg" xmlns:xlink="http://www.w3.org/1999/xlink" contentScriptType="application/ecmascript" contentStyleType="text/css" height="2111px" preserveAspectRatio="none" style="width:729px;height:2111px;background:#FFFFFF;" version="1.1" viewBox="0 0 729 2111" width="729px" zoomAndPan="magnify"><defs/><g><rect fill="#FFFFFF" height="69.52" style="stroke:#000000;stroke-width:1.0;" width="10" x="270.5" y="177.28"/><rect fill="#FFFFFF" height="186.04" style="stroke:#000000;stroke-width:1.0;" width="10" x="270.5" y="363.32"/><rect fill="#FFFFFF" height="143.28" style="stroke:#000000;stroke-width:1.0;" width="10" x="270.5" y="618.88"/><rect fill="#FFFFFF" height="194.04" style="stroke:#FFFFFF;stroke-width:1.0;" width="10" x="270.5" y="896.44"/><line style="stroke:#000000;stroke-width:1.0;" x1="270.5" x2="270.5" y1="896.44" y2="1090.48"/><line style="stroke:#000000;stroke-width:1.0;" x1="280.5" x2="280.5" y1="896.44" y2="1090.48"/><line style="stroke:#000000;stroke-width:1.0;" x1="270.5" x2="280.5" y1="896.44" y2="896.44"/><rect fill="#FFFFFF" height="949.48" style="stroke:#FFFFFF;stroke-width:1.0;" width="10" x="270.5" y="1138.48"/><line style="stroke:#000000;stroke-width:1.0;" x1="270.5" x2="270.5" y1="1138.48" y2="2087.96"/><line style="stroke:#000000;stroke-width:1.0;" x1="280.5" x2="280.5" y1="1138.48" y2="2087.96"/><line style="stroke:#000000;stroke-width:1.0;" x1="270.5" x2="280.5" y1="2087.96" y2="2087.96"/><rect fill="#FFFFFF" height="116.52" style="stroke:#000000;stroke-width:1.0;" width="10" x="590.5" y="246.8"/><rect fill="#FFFFFF" height="69.52" style="stroke:#000000;stroke-width:1.0;" width="10" x="590.5" y="549.36"/><rect fill="#FFFFFF" height="203.8" style="stroke:#000000;stroke-width:1.0;" width="10" x="590.5" y="762.16"/><rect fill="#FFFFFF" height="30" style="stroke:#000000;stroke-width:1.0;" width="10" x="590.5" y="1282.52"/><rect fill="#FFFFFF" height="168.04" style="stroke:#000000;stroke-width:1.0;" width="10" x="590.5" y="1503.32"/><rect fill="#FFFFFF" height="267.32" style="stroke:#000000;stroke-width:1.0;" width="10" x="590.5" y="1740.88"/><rect fill="#FFFFFF" height="1644.88" rx="5" ry="5" style="stroke:#000000;stroke-width:2.0;" width="712.5" x="10" y="443.08"/><rect fill="#FFFFFF" height="1409.32" style="stroke:none;stroke-width:1.0;" width="712.5" x="10" y="678.64"/><rect fill="#FFFFFF" height="241.32" rx="5" ry="5" style="stroke:#000000;stroke-width:2.0;" width="429.5" x="216" y="1379.28"/><rect fill="#FFFFFF" height="109.28" style="stroke:none;stroke-width:1.0;" width="429.5" x="216" y="1511.32"/><rect fill="#FFFFFF" height="132.04" rx="5" ry="5" style="stroke:#000000;stroke-width:2.0;" width="429.5" x="216" y="1755.88"/><rect fill="#FFFFFF" height="179.04" rx="5" ry="5" style="stroke:#000000;stroke-width:2.0;" width="429.5" x="216" y="1901.92"/><line style="stroke:#000000;stroke-width:1.0;" x1="49" x2="49" y1="105.76" y2="1090.48"/><line style="stroke:#000000;stroke-width:1.0;stroke-dasharray:1.0,4.0;" x1="49" x2="49" y1="1090.48" y2="1138.48"/><line style="stroke:#000000;stroke-width:1.0;" x1="49" x2="49" y1="1138.48" y2="2104.96"/><line style="stroke:#000000;stroke-width:1.0;" x1="275" x2="275" y1="105.76" y2="1090.48"/><line style="stroke:#000000;stroke-width:1.0;stroke-dasharray:1.0,4.0;" x1="275" x2="275" y1="1090.48" y2="1138.48"/><line style="stroke:#000000;stroke-width:1.0;" x1="275" x2="275" y1="1138.48" y2="2104.96"/><line style="stroke:#000000;stroke-width:1.0;" x1="595.5" x2="595.5" y1="105.76" y2="1090.48"/><line style="stroke:#000000;stroke-width:1.0;stroke-dasharray:1.0,4.0;" x1="595.5" x2="595.5" y1="1090.48" y2="1138.48"/><line style="stroke:#000000;stroke-width:1.0;" x1="595.5" x2="595.5" y1="1138.48" y2="2104.96"/><text fill="#000000" font-family="Noto Sans CJK KR" font-size="12" font-weight="bold" lengthAdjust="spacing" textLength="33" x="30" y="91.92">사용자</text><ellipse cx="49.5" cy="15" fill="#FEFECE" rx="8" ry="8" style="stroke:#000000;stroke-width:2.0;"/><path d="M49.5,23 L49.5,50 M36.5,31 L62.5,31 M49.5,50 L36.5,65 M49.5,50 L62.5,65 " fill="none" style="stroke:#000000;stroke-width:2.0;"/><rect fill="#9EA0CA" height="54.72" rx="5" ry="5" style="stroke:#FFFFFF;stroke-width:1.5;" width="99" x="226" y="50.04"/><text fill="#FFFFFF" font-family="Noto Sans CJK KR" font-size="14" font-weight="bold" lengthAdjust="spacing" textLength="65" x="243" y="83.28">클라이언트</text><rect fill="#05D686" height="54.72" rx="5" ry="5" style="stroke:#FFFFFF;stroke-width:1.5;" width="80" x="555.5" y="50.04"/><text fill="#FFFFFF" font-family="Noto Sans CJK KR" font-size="14" font-weight="bold" lengthAdjust="spacing" textLength="46" x="572.5" y="83.28">CLOVA</text><rect fill="#FFFFFF" height="69.52" style="stroke:#000000;stroke-width:1.0;" width="10" x="270.5" y="177.28"/><rect fill="#FFFFFF" height="186.04" style="stroke:#000000;stroke-width:1.0;" width="10" x="270.5" y="363.32"/><rect fill="#FFFFFF" height="143.28" style="stroke:#000000;stroke-width:1.0;" width="10" x="270.5" y="618.88"/><rect fill="#FFFFFF" height="194.04" style="stroke:#FFFFFF;stroke-width:1.0;" width="10" x="270.5" y="896.44"/><line style="stroke:#000000;stroke-width:1.0;" x1="270.5" x2="270.5" y1="896.44" y2="1090.48"/><line style="stroke:#000000;stroke-width:1.0;" x1="280.5" x2="280.5" y1="896.44" y2="1090.48"/><line style="stroke:#000000;stroke-width:1.0;" x1="270.5" x2="280.5" y1="896.44" y2="896.44"/><rect fill="#FFFFFF" height="949.48" style="stroke:#FFFFFF;stroke-width:1.0;" width="10" x="270.5" y="1138.48"/><line style="stroke:#000000;stroke-width:1.0;" x1="270.5" x2="270.5" y1="1138.48" y2="2087.96"/><line style="stroke:#000000;stroke-width:1.0;" x1="280.5" x2="280.5" y1="1138.48" y2="2087.96"/><line style="stroke:#000000;stroke-width:1.0;" x1="270.5" x2="280.5" y1="2087.96" y2="2087.96"/><rect fill="#FFFFFF" height="116.52" style="stroke:#000000;stroke-width:1.0;" width="10" x="590.5" y="246.8"/><rect fill="#FFFFFF" height="69.52" style="stroke:#000000;stroke-width:1.0;" width="10" x="590.5" y="549.36"/><rect fill="#FFFFFF" height="203.8" style="stroke:#000000;stroke-width:1.0;" width="10" x="590.5" y="762.16"/><rect fill="#FFFFFF" height="30" style="stroke:#000000;stroke-width:1.0;" width="10" x="590.5" y="1282.52"/><rect fill="#FFFFFF" height="168.04" style="stroke:#000000;stroke-width:1.0;" width="10" x="590.5" y="1503.32"/><rect fill="#FFFFFF" height="267.32" style="stroke:#000000;stroke-width:1.0;" width="10" x="590.5" y="1740.88"/><line style="stroke:#000000;stroke-width:1.0;" x1="268.5" x2="258.5" y1="177.28" y2="173.28"/><line style="stroke:#000000;stroke-width:1.0;" x1="268.5" x2="258.5" y1="177.28" y2="181.28"/><line style="stroke:#000000;stroke-width:1.0;" x1="49.5" x2="269.5" y1="177.28" y2="177.28"/><text fill="#000000" font-family="Noto Sans CJK KR" font-size="12" lengthAdjust="spacing" textLength="75" x="122.5" y="143.68">알람 등록 요청:</text><text fill="#000000" font-family="Noto Sans CJK KR" font-size="12" lengthAdjust="spacing" textLength="169" x="75.5" y="161.44">"오늘 오후 9 시에 알람 등록해줘."</text><line style="stroke:#000000;stroke-width:1.0;" x1="588.5" x2="578.5" y1="246.8" y2="242.8"/><line style="stroke:#000000;stroke-width:1.0;" x1="588.5" x2="578.5" y1="246.8" y2="250.8"/><line style="stroke:#000000;stroke-width:1.0;" x1="275.5" x2="589.5" y1="246.8" y2="246.8"/><text fill="#000000" font-family="Noto Sans CJK KR" font-size="12" lengthAdjust="spacing" textLength="83" x="391.5" y="213.2">사용자 요청 전달</text><text fill="#000000" font-family="Noto Sans CJK KR" font-size="12" lengthAdjust="spacing" textLength="245" x="310.5" y="230.96">(SpeechRecognizer.Recognize 이벤트 메시지)</text><line style="stroke:#000000;stroke-width:1.0;" x1="600.5" x2="642.5" y1="298.56" y2="298.56"/><line style="stroke:#000000;stroke-width:1.0;" x1="642.5" x2="642.5" y1="298.56" y2="311.56"/><line style="stroke:#000000;stroke-width:1.0;" x1="601.5" x2="642.5" y1="311.56" y2="311.56"/><polygon fill="#000000" points="611.5,307.56,601.5,311.56,611.5,315.56,607.5,311.56" style="stroke:#000000;stroke-width:1.0;"/><text fill="#000000" font-family="Noto Sans CJK KR" font-size="12" lengthAdjust="spacing" textLength="83" x="617.5" y="282.72">사용자 발화 분석</text><line style="stroke:#000000;stroke-width:1.0;" x1="280.5" x2="290.5" y1="363.32" y2="359.32"/><line style="stroke:#000000;stroke-width:1.0;" x1="280.5" x2="290.5" y1="363.32" y2="367.32"/><line style="stroke:#000000;stroke-width:1.0;stroke-dasharray:2.0,2.0;" x1="280.5" x2="594.5" y1="363.32" y2="363.32"/><text fill="#000000" font-family="Noto Sans CJK KR" font-size="12" lengthAdjust="spacing" textLength="168" x="354" y="347.48">Alerts.SetAlert 지시 메시지 전달</text><line style="stroke:#000000;stroke-width:1.0;" x1="280.5" x2="322.5" y1="415.08" y2="415.08"/><line style="stroke:#000000;stroke-width:1.0;" x1="322.5" x2="322.5" y1="415.08" y2="428.08"/><line style="stroke:#000000;stroke-width:1.0;" x1="281.5" x2="322.5" y1="428.08" y2="428.08"/><polygon fill="#000000" points="291.5,424.08,281.5,428.08,291.5,432.08,287.5,428.08" style="stroke:#000000;stroke-width:1.0;"/><text fill="#000000" font-family="Noto Sans CJK KR" font-size="12" lengthAdjust="spacing" textLength="141" x="297.5" y="399.24">클라이언트 기기에 알람 등록</text><path d="M15,443.08 L91,443.08 L91,472.08 L81,482.08 L10,482.08 L10,448.08 " fill="#EEEEEE" style="stroke:#000000;stroke-width:1.0;"/><rect fill="none" height="1644.88" rx="5" ry="5" style="stroke:#000000;stroke-width:2.0;" width="712.5" x="10" y="443.08"/><text fill="#000000" font-family="Noto Sans CJK KR" font-size="12" font-weight="bold" lengthAdjust="spacing" textLength="16" x="35" y="468">alt</text><text fill="#000000" font-family="Noto Sans CJK KR" font-size="12" font-weight="bold" lengthAdjust="spacing" textLength="149" x="116" y="469">[알람 등록 결과 == 등록 실패]</text><line style="stroke:#000000;stroke-width:1.0;" x1="588.5" x2="578.5" y1="549.36" y2="545.36"/><line style="stroke:#000000;stroke-width:1.0;" x1="588.5" x2="578.5" y1="549.36" y2="553.36"/><line style="stroke:#000000;stroke-width:1.0;" x1="275.5" x2="589.5" y1="549.36" y2="549.36"/><text fill="#000000" font-family="Noto Sans CJK KR" font-size="12" lengthAdjust="spacing" textLength="213" x="326.5" y="533.52">Alerts.SetAlertFailed 이벤트 메시지 전송</text><line style="stroke:#000000;stroke-width:1.0;" x1="280.5" x2="290.5" y1="618.88" y2="614.88"/><line style="stroke:#000000;stroke-width:1.0;" x1="280.5" x2="290.5" y1="618.88" y2="622.88"/><line style="stroke:#000000;stroke-width:1.0;stroke-dasharray:2.0,2.0;" x1="280.5" x2="594.5" y1="618.88" y2="618.88"/><text fill="#000000" font-family="Noto Sans CJK KR" font-size="12" lengthAdjust="spacing" textLength="231" x="322.5" y="585.28">SpeechSynthesizer.Speak 지시 메시지 전달</text><text fill="#000000" font-family="Noto Sans CJK KR" font-size="12" lengthAdjust="spacing" textLength="150" x="363" y="603.04">("알람을 등록하지 못했어요.")</text><line style="stroke:#000000;stroke-width:1.0;" x1="49.5" x2="59.5" y1="670.64" y2="666.64"/><line style="stroke:#000000;stroke-width:1.0;" x1="49.5" x2="59.5" y1="670.64" y2="674.64"/><line style="stroke:#000000;stroke-width:1.0;stroke-dasharray:2.0,2.0;" x1="49.5" x2="269.5" y1="670.64" y2="670.64"/><text fill="#000000" font-family="Noto Sans CJK KR" font-size="12" lengthAdjust="spacing" textLength="97" x="111.5" y="654.8">알람 등록 결과 전달</text><line style="stroke:#000000;stroke-width:1.0;stroke-dasharray:2.0,2.0;" x1="10" x2="722.5" y1="679.64" y2="679.64"/><text fill="#000000" font-family="Noto Sans CJK KR" font-size="12" font-weight="bold" lengthAdjust="spacing" textLength="149" x="25" y="703.56">[알람 등록 결과 == 등록 성공]</text><line style="stroke:#000000;stroke-width:1.0;" x1="588.5" x2="578.5" y1="762.16" y2="758.16"/><line style="stroke:#000000;stroke-width:1.0;" x1="588.5" x2="578.5" y1="762.16" y2="766.16"/><line style="stroke:#000000;stroke-width:1.0;" x1="275.5" x2="589.5" y1="762.16" y2="762.16"/><text fill="#000000" font-family="Noto Sans CJK KR" font-size="12" lengthAdjust="spacing" textLength="240" x="313" y="746.32">Alerts.SetAlertSucceeded 이벤트 메시지 전송</text><line style="stroke:#000000;stroke-width:1.0;" x1="600.5" x2="642.5" y1="813.92" y2="813.92"/><line style="stroke:#000000;stroke-width:1.0;" x1="642.5" x2="642.5" y1="813.92" y2="826.92"/><line style="stroke:#000000;stroke-width:1.0;" x1="601.5" x2="642.5" y1="826.92" y2="826.92"/><polygon fill="#000000" points="611.5,822.92,601.5,826.92,611.5,830.92,607.5,826.92" style="stroke:#000000;stroke-width:1.0;"/><text fill="#000000" font-family="Noto Sans CJK KR" font-size="12" lengthAdjust="spacing" textLength="83" x="617.5" y="798.08">사용자 알람 등록</text><line style="stroke:#000000;stroke-width:1.0;" x1="280.5" x2="290.5" y1="896.44" y2="892.44"/><line style="stroke:#000000;stroke-width:1.0;" x1="280.5" x2="290.5" y1="896.44" y2="900.44"/><line style="stroke:#000000;stroke-width:1.0;stroke-dasharray:2.0,2.0;" x1="280.5" x2="589.5" y1="896.44" y2="896.44"/><text fill="#000000" font-family="Noto Sans CJK KR" font-size="12" lengthAdjust="spacing" textLength="231" x="320" y="862.84">SpeechSynthesizer.Speak 지시 메시지 전달</text><text fill="#000000" font-family="Noto Sans CJK KR" font-size="12" lengthAdjust="spacing" textLength="136" x="367.5" y="880.6">("알람이 등록되었습니다.")</text><line style="stroke:#000000;stroke-width:1.0;" x1="280.5" x2="290.5" y1="965.96" y2="961.96"/><line style="stroke:#000000;stroke-width:1.0;" x1="280.5" x2="290.5" y1="965.96" y2="969.96"/><line style="stroke:#000000;stroke-width:1.0;stroke-dasharray:2.0,2.0;" x1="280.5" x2="594.5" y1="965.96" y2="965.96"/><text fill="#000000" font-family="Noto Sans CJK KR" font-size="12" lengthAdjust="spacing" textLength="266" x="305" y="932.36">Actiontimer, Alarm, Reminder, Timer 템플릿 전달</text><text fill="#000000" font-family="Noto Sans CJK KR" font-size="12" lengthAdjust="spacing" textLength="198" x="339" y="950.12">(Clova.RenderTemplate 지시 메시지)</text><line style="stroke:#000000;stroke-width:1.0;" x1="280.5" x2="322.5" y1="1017.72" y2="1017.72"/><line style="stroke:#000000;stroke-width:1.0;" x1="322.5" x2="322.5" y1="1017.72" y2="1030.72"/><line style="stroke:#000000;stroke-width:1.0;" x1="281.5" x2="322.5" y1="1030.72" y2="1030.72"/><polygon fill="#000000" points="291.5,1026.72,281.5,1030.72,291.5,1034.72,287.5,1030.72" style="stroke:#000000;stroke-width:1.0;"/><text fill="#000000" font-family="Noto Sans CJK KR" font-size="12" lengthAdjust="spacing" textLength="172" x="297.5" y="1001.88">음성 출력 및 등록된 알람 내용 표시</text><line style="stroke:#000000;stroke-width:1.0;" x1="49.5" x2="59.5" y1="1082.48" y2="1078.48"/><line style="stroke:#000000;stroke-width:1.0;" x1="49.5" x2="59.5" y1="1082.48" y2="1086.48"/><line style="stroke:#000000;stroke-width:1.0;stroke-dasharray:2.0,2.0;" x1="49.5" x2="269.5" y1="1082.48" y2="1082.48"/><text fill="#000000" font-family="Noto Sans CJK KR" font-size="12" lengthAdjust="spacing" textLength="97" x="111.5" y="1066.64">알람 등록 결과 전달</text><line style="stroke:#000000;stroke-width:1.0;" x1="280.5" x2="322.5" y1="1182.24" y2="1182.24"/><line style="stroke:#000000;stroke-width:1.0;" x1="322.5" x2="322.5" y1="1182.24" y2="1195.24"/><line style="stroke:#000000;stroke-width:1.0;" x1="281.5" x2="322.5" y1="1195.24" y2="1195.24"/><polygon fill="#000000" points="291.5,1191.24,281.5,1195.24,291.5,1199.24,287.5,1195.24" style="stroke:#000000;stroke-width:1.0;"/><text fill="#000000" font-family="Noto Sans CJK KR" font-size="12" lengthAdjust="spacing" textLength="47" x="297.5" y="1166.4">알람 시작</text><line style="stroke:#000000;stroke-width:1.0;" x1="588.5" x2="578.5" y1="1282.52" y2="1278.52"/><line style="stroke:#000000;stroke-width:1.0;" x1="588.5" x2="578.5" y1="1282.52" y2="1286.52"/><line style="stroke:#000000;stroke-width:1.0;" x1="280.5" x2="589.5" y1="1282.52" y2="1282.52"/><text fill="#000000" font-family="Noto Sans CJK KR" font-size="12" lengthAdjust="spacing" textLength="72" x="302.5" y="1231.16">알람 시작 보고</text><text fill="#000000" font-family="Noto Sans CJK KR" font-size="12" lengthAdjust="spacing" textLength="185" x="302.5" y="1248.92">(Alerts.AlertStarted 이벤트 메시지,</text><text fill="#000000" font-family="Noto Sans CJK KR" font-size="12" lengthAdjust="spacing" textLength="266" x="302.5" y="1266.68">Alert.AlertsState에 activateAlerts 필드 필수 포함)</text><line style="stroke:#000000;stroke-width:1.0;" x1="268.5" x2="258.5" y1="1364.28" y2="1360.28"/><line style="stroke:#000000;stroke-width:1.0;" x1="268.5" x2="258.5" y1="1364.28" y2="1368.28"/><line style="stroke:#000000;stroke-width:1.0;" x1="49.5" x2="269.5" y1="1364.28" y2="1364.28"/><text fill="#000000" font-family="Noto Sans CJK KR" font-size="12" lengthAdjust="spacing" textLength="177" x="71.5" y="1348.44">알람 중지 요청 (발화 또는 물리버튼)</text><path d="M221,1379.28 L297,1379.28 L297,1408.28 L287,1418.28 L216,1418.28 L216,1384.28 " fill="#EEEEEE" style="stroke:#000000;stroke-width:1.0;"/><rect fill="none" height="241.32" rx="5" ry="5" style="stroke:#000000;stroke-width:2.0;" width="429.5" x="216" y="1379.28"/><text fill="#000000" font-family="Noto Sans CJK KR" font-size="12" font-weight="bold" lengthAdjust="spacing" textLength="16" x="241" y="1404.2">alt</text><text fill="#000000" font-family="Noto Sans CJK KR" font-size="12" font-weight="bold" lengthAdjust="spacing" textLength="185" x="322" y="1405.2">[알람 중지 요청 유형 == 사용자 발화]</text><line style="stroke:#000000;stroke-width:1.0;" x1="588.5" x2="578.5" y1="1503.32" y2="1499.32"/><line style="stroke:#000000;stroke-width:1.0;" x1="588.5" x2="578.5" y1="1503.32" y2="1507.32"/><line style="stroke:#000000;stroke-width:1.0;" x1="280.5" x2="589.5" y1="1503.32" y2="1503.32"/><text fill="#000000" font-family="Noto Sans CJK KR" font-size="12" lengthAdjust="spacing" textLength="97" x="387" y="1469.72">알람 중지 요청 전달</text><text fill="#000000" font-family="Noto Sans CJK KR" font-size="12" lengthAdjust="spacing" textLength="245" x="313" y="1487.48">(SpeechRecognizer.Recognize 이벤트 메시지)</text><line style="stroke:#000000;stroke-width:1.0;stroke-dasharray:2.0,2.0;" x1="216" x2="645.5" y1="1512.32" y2="1512.32"/><text fill="#000000" font-family="Noto Sans CJK KR" font-size="12" font-weight="bold" lengthAdjust="spacing" textLength="174" x="231" y="1536.24">[알람 중지 요청 유형 == 물리 버튼]</text><line style="stroke:#000000;stroke-width:1.0;" x1="588.5" x2="578.5" y1="1612.6" y2="1608.6"/><line style="stroke:#000000;stroke-width:1.0;" x1="588.5" x2="578.5" y1="1612.6" y2="1616.6"/><line style="stroke:#000000;stroke-width:1.0;" x1="280.5" x2="589.5" y1="1612.6" y2="1612.6"/><text fill="#000000" font-family="Noto Sans CJK KR" font-size="12" lengthAdjust="spacing" textLength="97" x="387" y="1579">알람 중지 요청 전달</text><text fill="#000000" font-family="Noto Sans CJK KR" font-size="12" lengthAdjust="spacing" textLength="216" x="327.5" y="1596.76">(Alerts.RequestAlertStop 이벤트 메시지)</text><line style="stroke:#000000;stroke-width:1.0;" x1="280.5" x2="290.5" y1="1671.36" y2="1667.36"/><line style="stroke:#000000;stroke-width:1.0;" x1="280.5" x2="290.5" y1="1671.36" y2="1675.36"/><line style="stroke:#000000;stroke-width:1.0;stroke-dasharray:2.0,2.0;" x1="280.5" x2="594.5" y1="1671.36" y2="1671.36"/><text fill="#000000" font-family="Noto Sans CJK KR" font-size="12" lengthAdjust="spacing" textLength="175" x="350.5" y="1655.52">Alerts.StopAlert 지시 메시지 전달</text><line style="stroke:#000000;stroke-width:1.0;" x1="588.5" x2="578.5" y1="1740.88" y2="1736.88"/><line style="stroke:#000000;stroke-width:1.0;" x1="588.5" x2="578.5" y1="1740.88" y2="1744.88"/><line style="stroke:#000000;stroke-width:1.0;" x1="280.5" x2="589.5" y1="1740.88" y2="1740.88"/><text fill="#000000" font-family="Noto Sans CJK KR" font-size="12" lengthAdjust="spacing" textLength="97" x="387" y="1707.28">알람 중지 결과 보고</text><text fill="#000000" font-family="Noto Sans CJK KR" font-size="12" lengthAdjust="spacing" textLength="190" x="340.5" y="1725.04">(Alerts.AlertStopped 이벤트 메시지)</text><path d="M221,1755.88 L302,1755.88 L302,1784.88 L292,1794.88 L216,1794.88 L216,1760.88 " fill="#EEEEEE" style="stroke:#000000;stroke-width:1.0;"/><rect fill="none" height="132.04" rx="5" ry="5" style="stroke:#000000;stroke-width:2.0;" width="429.5" x="216" y="1755.88"/><text fill="#000000" font-family="Noto Sans CJK KR" font-size="12" font-weight="bold" lengthAdjust="spacing" textLength="21" x="241" y="1780.8">opt</text><text fill="#000000" font-family="Noto Sans CJK KR" font-size="12" font-weight="bold" lengthAdjust="spacing" textLength="113" x="327" y="1781.8">[반복 알람 여부 == 네]</text><line style="stroke:#000000;stroke-width:1.0;" x1="280.5" x2="290.5" y1="1879.92" y2="1875.92"/><line style="stroke:#000000;stroke-width:1.0;" x1="280.5" x2="290.5" y1="1879.92" y2="1883.92"/><line style="stroke:#000000;stroke-width:1.0;stroke-dasharray:2.0,2.0;" x1="280.5" x2="589.5" y1="1879.92" y2="1879.92"/><text fill="#000000" font-family="Noto Sans CJK KR" font-size="12" lengthAdjust="spacing" textLength="97" x="387" y="1846.32">다음 반복 알람 전달</text><text fill="#000000" font-family="Noto Sans CJK KR" font-size="12" lengthAdjust="spacing" textLength="151" x="360" y="1864.08">(Alerts.SetAlert 지시 메시지)</text><path d="M221,1901.92 L302,1901.92 L302,1930.92 L292,1940.92 L216,1940.92 L216,1906.92 " fill="#EEEEEE" style="stroke:#000000;stroke-width:1.0;"/><rect fill="none" height="179.04" rx="5" ry="5" style="stroke:#000000;stroke-width:2.0;" width="429.5" x="216" y="1901.92"/><text fill="#000000" font-family="Noto Sans CJK KR" font-size="12" font-weight="bold" lengthAdjust="spacing" textLength="21" x="241" y="1926.84">opt</text><text fill="#000000" font-family="Noto Sans CJK KR" font-size="12" font-weight="bold" lengthAdjust="spacing" textLength="132" x="327" y="1927.84">[알람 종류 == 액션타이머]</text><line style="stroke:#000000;stroke-width:1.0;" x1="280.5" x2="290.5" y1="2008.2" y2="2004.2"/><line style="stroke:#000000;stroke-width:1.0;" x1="280.5" x2="290.5" y1="2008.2" y2="2012.2"/><line style="stroke:#000000;stroke-width:1.0;stroke-dasharray:2.0,2.0;" x1="280.5" x2="594.5" y1="2008.2" y2="2008.2"/><text fill="#000000" font-family="Noto Sans CJK KR" font-size="12" lengthAdjust="spacing" textLength="249" x="313.5" y="1992.36">사용자가 예약한 동작을 수행하는 지시 메시지 전달</text><line style="stroke:#000000;stroke-width:1.0;" x1="280.5" x2="322.5" y1="2059.96" y2="2059.96"/><line style="stroke:#000000;stroke-width:1.0;" x1="322.5" x2="322.5" y1="2059.96" y2="2072.96"/><line style="stroke:#000000;stroke-width:1.0;" x1="281.5" x2="322.5" y1="2072.96" y2="2072.96"/><polygon fill="#000000" points="291.5,2068.96,281.5,2072.96,291.5,2076.96,287.5,2072.96" style="stroke:#000000;stroke-width:1.0;"/><text fill="#000000" font-family="Noto Sans CJK KR" font-size="12" lengthAdjust="spacing" textLength="83" x="297.5" y="2044.12">예약된 동작 수행</text><!--MD5=[d6855e8eaa3bb2875c16dadfcc25f7fd]
@startuml
!include ../../../styles/PlantUML_StyleSheet.puml

actor 사용자 as user
participant 클라이언트 as client #9EA0CA
participant CLOVA as clova #05D686

user ->> client : 알람 등록 요청:\n"오늘 오후 9 시에 알람 등록해줘."

activate client
  client ->> clova : 사용자 요청 전달\n(SpeechRecognizer.Recognize 이벤트 메시지)
deactivate client

activate clova
  clova -> clova : 사용자 발화 분석
  clova - ->> client : Alerts.SetAlert 지시 메시지 전달
deactivate clova

activate client
  client -> client : 클라이언트 기기에 알람 등록

alt 알람 등록 결과 == 등록 실패

  client ->> clova : Alerts.SetAlertFailed 이벤트 메시지 전송
  deactivate client
  activate clova

    clova - ->> client : SpeechSynthesizer.Speak 지시 메시지 전달\n("알람을 등록하지 못했어요.")
  deactivate clova
  activate client
    client - ->> user : 알람 등록 결과 전달

else 알람 등록 결과 == 등록 성공

  client ->> clova : Alerts.SetAlertSucceeded 이벤트 메시지 전송

deactivate client

activate clova
  clova -> clova : 사용자 알람 등록
  clova - ->> client : SpeechSynthesizer.Speak 지시 메시지 전달\n("알람이 등록되었습니다.")
activate client
  clova - ->> client :  Actiontimer, Alarm, Reminder, Timer 템플릿 전달\n(Clova.RenderTemplate 지시 메시지)
deactivate clova

  client -> client : 음성 출력 및 등록된 알람 내용 표시
  client - ->> user : 알람 등록 결과 전달


...

  client -> client : 알람 시작
  client ->> clova : 알람 시작 보고\n(Alerts.AlertStarted 이벤트 메시지,\lAlert.AlertsState에 activateAlerts 필드 필수 포함)

  activate clova
  deactivate clova

  user ->> client : 알람 중지 요청 (발화 또는 물리버튼)

  alt 알람 중지 요청 유형 == 사용자 발화

    client ->> clova : 알람 중지 요청 전달\n(SpeechRecognizer.Recognize 이벤트 메시지)

  activate clova

  else 알람 중지 요청 유형 == 물리 버튼

    client ->> clova : 알람 중지 요청 전달\n(Alerts.RequestAlertStop 이벤트 메시지)

  end

  clova - ->> client : Alerts.StopAlert 지시 메시지 전달

  deactivate clova

  client ->> clova : 알람 중지 결과 보고\n(Alerts.AlertStopped 이벤트 메시지)
  activate clova

    opt 반복 알람 여부 == 네

      clova - ->> client : 다음 반복 알람 전달\n(Alerts.SetAlert 지시 메시지)

    end

    opt 알람 종류 == 액션타이머

      clova - ->> client : 사용자가 예약한 동작을 수행하는 지시 메시지 전달

    deactivate clova

      client -> client : 예약된 동작 수행

    end

  deactivate client
  deactivate clova

  end
@enduml

@startuml
scale max 880 width
skinparam sequenceMessageAlign center
skinparam shadowing false
skinparam roundcorner 10
skinparam padding 10
skinparam defaultFontSize 12
skinparam defaultFontName "Noto Sans CJK KR"

skinparam note {
  BackgroundColor #9EA0CA
  BorderColor #ffffff
  FontColor #ffffff
  FontSize 14
  FontStyle bold
}

skinparam sequence {
  ArrowColor #000000
  ActorBorderColor #000000
  ActorFontStyle Bolder


  LifeLineBorderColor #000000
  LifeLineBackgroundColor transparent
  ParticipantBorderColor transparent
  ParticipantFontSize 14
  ParticipantFontColor #ffffff
  ParticipantFontStyle bold

  BoxBorderColor #000000
  BoxFontColor #ffffff
    BoxFontSize 14
    BoxFontStyle bold
}
hide footbox

skinparam activity {
  BackgroundColor #9EA0CA
  BarColor #ffffff
  BorderColor #ffffff
  DiamondBackgroundColor #05D686
  DiamondBorderColor #ffffff
  DiamondFontColor #ffffff
  DiamondFontSize 14
  DiamondFontStyle bold
  FontColor #ffffff 
  FontSize 14
  FontStyle bold
}

actor 사용자 as user
participant 클라이언트 as client #9EA0CA
participant CLOVA as clova #05D686

user ->> client : 알람 등록 요청:\n"오늘 오후 9 시에 알람 등록해줘."

activate client
  client ->> clova : 사용자 요청 전달\n(SpeechRecognizer.Recognize 이벤트 메시지)
deactivate client

activate clova
  clova -> clova : 사용자 발화 분석
  clova - ->> client : Alerts.SetAlert 지시 메시지 전달
deactivate clova

activate client
  client -> client : 클라이언트 기기에 알람 등록

alt 알람 등록 결과 == 등록 실패

  client ->> clova : Alerts.SetAlertFailed 이벤트 메시지 전송
  deactivate client
  activate clova

    clova - ->> client : SpeechSynthesizer.Speak 지시 메시지 전달\n("알람을 등록하지 못했어요.")
  deactivate clova
  activate client
    client - ->> user : 알람 등록 결과 전달

else 알람 등록 결과 == 등록 성공

  client ->> clova : Alerts.SetAlertSucceeded 이벤트 메시지 전송

deactivate client

activate clova
  clova -> clova : 사용자 알람 등록
  clova - ->> client : SpeechSynthesizer.Speak 지시 메시지 전달\n("알람이 등록되었습니다.")
activate client
  clova - ->> client :  Actiontimer, Alarm, Reminder, Timer 템플릿 전달\n(Clova.RenderTemplate 지시 메시지)
deactivate clova

  client -> client : 음성 출력 및 등록된 알람 내용 표시
  client - ->> user : 알람 등록 결과 전달


...

  client -> client : 알람 시작
  client ->> clova : 알람 시작 보고\n(Alerts.AlertStarted 이벤트 메시지,\lAlert.AlertsState에 activateAlerts 필드 필수 포함)

  activate clova
  deactivate clova

  user ->> client : 알람 중지 요청 (발화 또는 물리버튼)

  alt 알람 중지 요청 유형 == 사용자 발화

    client ->> clova : 알람 중지 요청 전달\n(SpeechRecognizer.Recognize 이벤트 메시지)

  activate clova

  else 알람 중지 요청 유형 == 물리 버튼

    client ->> clova : 알람 중지 요청 전달\n(Alerts.RequestAlertStop 이벤트 메시지)

  end

  clova - ->> client : Alerts.StopAlert 지시 메시지 전달

  deactivate clova

  client ->> clova : 알람 중지 결과 보고\n(Alerts.AlertStopped 이벤트 메시지)
  activate clova

    opt 반복 알람 여부 == 네

      clova - ->> client : 다음 반복 알람 전달\n(Alerts.SetAlert 지시 메시지)

    end

    opt 알람 종류 == 액션타이머

      clova - ->> client : 사용자가 예약한 동작을 수행하는 지시 메시지 전달

    deactivate clova

      client -> client : 예약된 동작 수행

    end

  deactivate client
  deactivate clova

  end
@enduml

PlantUML version 1.2021.7(Sun May 23 21:40:07 KST 2021)
(GPL source distribution)
Java Runtime: OpenJDK Runtime Environment
JVM: OpenJDK 64-Bit Server VM
Default Encoding: UTF-8
Language: en
Country: KR
--></g></svg>