<?xml version="1.0" encoding="UTF-8" standalone="no"?><svg xmlns="http://www.w3.org/2000/svg" xmlns:xlink="http://www.w3.org/1999/xlink" contentScriptType="application/ecmascript" contentStyleType="text/css" height="407.0549px" preserveAspectRatio="none" style="width:881px;height:407px;" version="1.1" viewBox="0 0 881 407" width="881.4642px" zoomAndPan="magnify"><defs/><g><ellipse cx="526.8774" cy="19.523" fill="#000000" rx="9.7615" ry="9.7615" style="stroke: none; stroke-width: 0.9761508596783139;"/><rect fill="#9EA0CA" height="57.8169" rx="12.2019" ry="12.2019" style="stroke: #FFFFFF; stroke-width: 1.464226289517471;" width="262.5846" x="395.5851" y="48.8075"/><text fill="#FFFFFF" font-family="&quot;Noto Sans CJK KR&quot;, sans-serif" font-size="13.6661" font-weight="bold" lengthAdjust="spacingAndGlyphs" textLength="223.5385" x="415.1082" y="84.0986">수신한 지시 메시지의 대화 ID 확인</text><polygon fill="#05D686" points="439.5119,126.1475,614.2429,126.1475,625.9567,145.2944,614.2429,164.4414,439.5119,164.4414,427.7981,145.2944,439.5119,126.1475" style="stroke: #FFFFFF; stroke-width: 1.464226289517471;"/><text fill="#FFFFFF" font-family="&quot;Noto Sans CJK KR&quot;, sans-serif" font-size="13.6661" font-weight="bold" lengthAdjust="spacingAndGlyphs" textLength="147.3988" x="453.178" y="151.6771">대화 ID가 존재하는지?</text><text fill="#000000" font-family="&quot;Noto Sans CJK KR&quot;, sans-serif" font-size="11.7138" lengthAdjust="spacingAndGlyphs" textLength="11.7138" x="406.3228" y="132.9591">예</text><text fill="#000000" font-family="&quot;Noto Sans CJK KR&quot;, sans-serif" font-size="11.7138" lengthAdjust="spacingAndGlyphs" textLength="35.1414" x="635.7182" y="132.9591">아니오</text><rect fill="#9EA0CA" height="57.8169" rx="12.2019" ry="12.2019" style="stroke: #FFFFFF; stroke-width: 1.464226289517471;" width="166.9218" x="230.8597" y="174.2029"/><text fill="#FFFFFF" font-family="&quot;Noto Sans CJK KR&quot;, sans-serif" font-size="13.6661" font-weight="bold" lengthAdjust="spacingAndGlyphs" textLength="127.8758" x="250.3827" y="209.494">마지막 대화 ID 확인</text><polygon fill="#05D686" points="170.3383,251.5428,458.3028,251.5428,470.0166,270.6898,458.3028,289.8367,170.3383,289.8367,158.6245,270.6898,170.3383,251.5428" style="stroke: #FFFFFF; stroke-width: 1.464226289517471;"/><text fill="#FFFFFF" font-family="&quot;Noto Sans CJK KR&quot;, sans-serif" font-size="13.6661" font-weight="bold" lengthAdjust="spacingAndGlyphs" textLength="260.6323" x="184.0044" y="277.0724">지시 메시지의 대화 ID == 마지막 대화 ID</text><text fill="#000000" font-family="&quot;Noto Sans CJK KR&quot;, sans-serif" font-size="11.7138" lengthAdjust="spacingAndGlyphs" textLength="11.7138" x="137.1492" y="258.3544">예</text><text fill="#000000" font-family="&quot;Noto Sans CJK KR&quot;, sans-serif" font-size="11.7138" lengthAdjust="spacingAndGlyphs" textLength="35.1414" x="479.7781" y="258.3544">아니오</text><rect fill="#9EA0CA" height="57.8169" rx="12.2019" ry="12.2019" style="stroke: #FFFFFF; stroke-width: 1.464226289517471;" width="278.203" x="9.7615" y="299.5982"/><text fill="#FFFFFF" font-family="&quot;Noto Sans CJK KR&quot;, sans-serif" font-size="13.6661" font-weight="bold" lengthAdjust="spacingAndGlyphs" textLength="239.157" x="29.2845" y="334.8893">메시지 큐에 수신한 지시 메시지 추가</text><ellipse cx="148.863" cy="386.6997" fill="none" rx="9.7615" ry="9.7615" style="stroke: #000000; stroke-width: 0.9761508596783139;"/><ellipse cx="149.3511" cy="387.1878" fill="#000000" rx="5.8569" ry="5.8569" style="stroke: none; stroke-width: 0.9761508596783139;"/><rect fill="#9EA0CA" height="57.8169" rx="12.2019" ry="12.2019" style="stroke: #FFFFFF; stroke-width: 1.464226289517471;" width="197.1825" x="381.1869" y="299.5982"/><text fill="#FFFFFF" font-family="&quot;Noto Sans CJK KR&quot;, sans-serif" font-size="13.6661" font-weight="bold" lengthAdjust="spacingAndGlyphs" textLength="158.1364" x="400.7099" y="334.8893">수신한 지시 메시지 폐기</text><ellipse cx="479.7781" cy="386.6997" fill="none" rx="9.7615" ry="9.7615" style="stroke: #000000; stroke-width: 0.9761508596783139;"/><ellipse cx="480.2662" cy="387.1878" fill="#000000" rx="5.8569" ry="5.8569" style="stroke: none; stroke-width: 0.9761508596783139;"/><rect fill="#9EA0CA" height="57.8169" rx="12.2019" ry="12.2019" style="stroke: #FFFFFF; stroke-width: 1.464226289517471;" width="263.5607" x="607.6539" y="174.2029"/><text fill="#FFFFFF" font-family="&quot;Noto Sans CJK KR&quot;, sans-serif" font-size="13.6661" font-weight="bold" lengthAdjust="spacingAndGlyphs" textLength="224.5147" x="627.1769" y="209.494">수신한 지시 메시지 내용 즉시 처리</text><ellipse cx="739.4343" cy="261.3043" fill="none" rx="9.7615" ry="9.7615" style="stroke: #000000; stroke-width: 0.9761508596783139;"/><ellipse cx="739.9224" cy="261.7924" fill="#000000" rx="5.8569" ry="5.8569" style="stroke: none; stroke-width: 0.9761508596783139;"/><line style="stroke: #000000; stroke-width: 1.464226289517471;" x1="526.8774" x2="526.8774" y1="29.2845" y2="48.8075"/><polygon fill="#000000" points="522.9728,39.046,526.8774,48.8075,530.782,39.046,526.8774,42.9506" style="stroke: #000000; stroke-width: 0.9761508596783139;"/><line style="stroke: #000000; stroke-width: 1.464226289517471;" x1="148.863" x2="148.863" y1="357.4152" y2="376.9382"/><polygon fill="#000000" points="144.9584,367.1767,148.863,376.9382,152.7676,367.1767,148.863,371.0813" style="stroke: #000000; stroke-width: 0.9761508596783139;"/><line style="stroke: #000000; stroke-width: 1.464226289517471;" x1="479.7781" x2="479.7781" y1="357.4152" y2="376.9382"/><polygon fill="#000000" points="475.8735,367.1767,479.7781,376.9382,483.6828,367.1767,479.7781,371.0813" style="stroke: #000000; stroke-width: 0.9761508596783139;"/><line style="stroke: #000000; stroke-width: 1.464226289517471;" x1="158.6245" x2="148.863" y1="270.6898" y2="270.6898"/><line style="stroke: #000000; stroke-width: 1.464226289517471;" x1="148.863" x2="148.863" y1="270.6898" y2="299.5982"/><polygon fill="#000000" points="144.9584,289.8367,148.863,299.5982,152.7676,289.8367,148.863,293.7413" style="stroke: #000000; stroke-width: 0.9761508596783139;"/><line style="stroke: #000000; stroke-width: 1.464226289517471;" x1="470.0166" x2="479.7781" y1="270.6898" y2="270.6898"/><line style="stroke: #000000; stroke-width: 1.464226289517471;" x1="479.7781" x2="479.7781" y1="270.6898" y2="299.5982"/><polygon fill="#000000" points="475.8735,289.8367,479.7781,299.5982,483.6828,289.8367,479.7781,293.7413" style="stroke: #000000; stroke-width: 0.9761508596783139;"/><line style="stroke: #000000; stroke-width: 1.464226289517471;" x1="314.3206" x2="314.3206" y1="232.0198" y2="251.5428"/><polygon fill="#000000" points="310.416,241.7813,314.3206,251.5428,318.2252,241.7813,314.3206,245.6859" style="stroke: #000000; stroke-width: 0.9761508596783139;"/><line style="stroke: #000000; stroke-width: 1.464226289517471;" x1="739.4343" x2="739.4343" y1="232.0198" y2="251.5428"/><polygon fill="#000000" points="735.5297,241.7813,739.4343,251.5428,743.3389,241.7813,739.4343,245.6859" style="stroke: #000000; stroke-width: 0.9761508596783139;"/><line style="stroke: #000000; stroke-width: 1.464226289517471;" x1="427.7981" x2="314.3206" y1="145.2944" y2="145.2944"/><line style="stroke: #000000; stroke-width: 1.464226289517471;" x1="314.3206" x2="314.3206" y1="145.2944" y2="174.2029"/><polygon fill="#000000" points="310.416,164.4414,314.3206,174.2029,318.2252,164.4414,314.3206,168.346" style="stroke: #000000; stroke-width: 0.9761508596783139;"/><line style="stroke: #000000; stroke-width: 1.464226289517471;" x1="625.9567" x2="739.4343" y1="145.2944" y2="145.2944"/><line style="stroke: #000000; stroke-width: 1.464226289517471;" x1="739.4343" x2="739.4343" y1="145.2944" y2="174.2029"/><polygon fill="#000000" points="735.5297,164.4414,739.4343,174.2029,743.3389,164.4414,739.4343,168.346" style="stroke: #000000; stroke-width: 0.9761508596783139;"/><line style="stroke: #000000; stroke-width: 1.464226289517471;" x1="526.8774" x2="526.8774" y1="106.6245" y2="126.1475"/><polygon fill="#000000" points="522.9728,116.386,526.8774,126.1475,530.782,116.386,526.8774,120.2906" style="stroke: #000000; stroke-width: 0.9761508596783139;"/><!--
@startuml
scale max 880 width
skinparam sequenceMessageAlign center
skinparam shadowing false
skinparam roundcorner 10
skinparam padding 10
skinparam defaultFontSize 12
skinparam defaultFontName "Noto Sans CJK KR", sans-serif

skinparam note {
  BackgroundColor #9EA0CA
  BorderColor #ffffff
  FontColor #ffffff
  FontSize 14
  FontStyle bold
}

skinparam sequence {
  ArrowColor #000000
  ActorBorderColor #000000
  ActorFontStyle Bolder


  LifeLineBorderColor #000000
  LifeLineBackgroundColor transparent
  ParticipantBorderColor transparent
  ParticipantFontSize 14
  ParticipantFontColor #ffffff
  ParticipantFontStyle bold

  BoxBorderColor #000000
  BoxFontColor #ffffff
    BoxFontSize 14
    BoxFontStyle bold
}
hide footbox

skinparam activity {
  BackgroundColor #9EA0CA
  BarColor #ffffff
  BorderColor #ffffff
  DiamondBackgroundColor #05D686
  DiamondBorderColor #ffffff
  DiamondFontColor #ffffff
  DiamondFontSize 14
  DiamondFontStyle bold
  FontColor #ffffff 
  FontSize 14
  FontStyle bold
}

start

:수신한 지시 메시지의 대화 ID 확인;

if ( 대화 ID가 존재하는지? ) then (예)

  :마지막 대화 ID 확인;

  if ( 지시 메시지의 대화 ID == 마지막 대화 ID ) then (예)

  :메시지 큐에 수신한 지시 메시지 추가;
  stop

  else (아니오)

  :수신한 지시 메시지 폐기;
  stop
  endif

else (아니오)
  :수신한 지시 메시지 내용 즉시 처리;
  stop
endif

@enduml

PlantUML version 1.2018.12(Sun Oct 21 19:15:15 KST 2018)
(GPL source distribution)
Java Runtime: Java(TM) SE Runtime Environment
JVM: Java HotSpot(TM) 64-Bit Server VM
Java Version: 1.8.0_191-b12
Operating System: Windows 10
OS Version: 10.0
Default Encoding: MS949
Language: ko
Country: KR
--></g></svg>