<?xml version="1.0" encoding="UTF-8" standalone="no"?><svg xmlns="http://www.w3.org/2000/svg" xmlns:xlink="http://www.w3.org/1999/xlink" contentScriptType="application/ecmascript" contentStyleType="text/css" height="2114px" preserveAspectRatio="none" style="width:737px;height:2114px;" version="1.1" viewBox="0 0 737 2114" width="737px" zoomAndPan="magnify"><defs/><g><rect fill="#FFFFFF" height="69.52" style="stroke: #000000; stroke-width: 1.0;" width="10" x="273.5" y="175.28"/><rect fill="#FFFFFF" height="186.04" style="stroke: #000000; stroke-width: 1.0;" width="10" x="273.5" y="361.32"/><rect fill="#FFFFFF" height="143.28" style="stroke: #000000; stroke-width: 1.0;" width="10" x="273.5" y="616.88"/><rect fill="#FFFFFF" height="194.04" style="stroke: #FFFFFF; stroke-width: 1.0;" width="10" x="273.5" y="894.44"/><line style="stroke: #000000; stroke-width: 1.0;" x1="273.5" x2="273.5" y1="894.44" y2="1088.48"/><line style="stroke: #000000; stroke-width: 1.0;" x1="283.5" x2="283.5" y1="894.44" y2="1088.48"/><line style="stroke: #000000; stroke-width: 1.0;" x1="273.5" x2="283.5" y1="894.44" y2="894.44"/><rect fill="#FFFFFF" height="949.48" style="stroke: #FFFFFF; stroke-width: 1.0;" width="10" x="273.5" y="1136.48"/><line style="stroke: #000000; stroke-width: 1.0;" x1="273.5" x2="273.5" y1="1136.48" y2="2085.96"/><line style="stroke: #000000; stroke-width: 1.0;" x1="283.5" x2="283.5" y1="1136.48" y2="2085.96"/><line style="stroke: #000000; stroke-width: 1.0;" x1="273.5" x2="283.5" y1="2085.96" y2="2085.96"/><rect fill="#FFFFFF" height="116.52" style="stroke: #000000; stroke-width: 1.0;" width="10" x="593.5" y="244.8"/><rect fill="#FFFFFF" height="69.52" style="stroke: #000000; stroke-width: 1.0;" width="10" x="593.5" y="547.36"/><rect fill="#FFFFFF" height="203.8" style="stroke: #000000; stroke-width: 1.0;" width="10" x="593.5" y="760.16"/><rect fill="#FFFFFF" height="30" style="stroke: #000000; stroke-width: 1.0;" width="10" x="593.5" y="1280.52"/><rect fill="#FFFFFF" height="168.04" style="stroke: #000000; stroke-width: 1.0;" width="10" x="593.5" y="1501.32"/><rect fill="#FFFFFF" height="267.32" style="stroke: #000000; stroke-width: 1.0;" width="10" x="593.5" y="1738.88"/><rect fill="#FFFFFF" height="1644.88" rx="5" ry="5" style="stroke: #000000; stroke-width: 2.0;" width="712.5" x="13" y="441.08"/><rect fill="#FFFFFF" height="1409.32" style="stroke: none; stroke-width: 1.0;" width="712.5" x="13" y="676.64"/><rect fill="#FFFFFF" height="241.32" rx="5" ry="5" style="stroke: #000000; stroke-width: 2.0;" width="418" x="219" y="1377.28"/><rect fill="#FFFFFF" height="109.28" style="stroke: none; stroke-width: 1.0;" width="418" x="219" y="1509.32"/><rect fill="#FFFFFF" height="132.04" rx="5" ry="5" style="stroke: #000000; stroke-width: 2.0;" width="418" x="219" y="1753.88"/><rect fill="#FFFFFF" height="179.04" rx="5" ry="5" style="stroke: #000000; stroke-width: 2.0;" width="418" x="219" y="1899.92"/><line style="stroke: #000000; stroke-width: 1.0;" x1="52" x2="52" y1="103.76" y2="1088.48"/><line style="stroke: #000000; stroke-width: 1.0; stroke-dasharray: 1.0,4.0;" x1="52" x2="52" y1="1088.48" y2="1136.48"/><line style="stroke: #000000; stroke-width: 1.0;" x1="52" x2="52" y1="1136.48" y2="2102.96"/><line style="stroke: #000000; stroke-width: 1.0;" x1="278" x2="278" y1="103.76" y2="1088.48"/><line style="stroke: #000000; stroke-width: 1.0; stroke-dasharray: 1.0,4.0;" x1="278" x2="278" y1="1088.48" y2="1136.48"/><line style="stroke: #000000; stroke-width: 1.0;" x1="278" x2="278" y1="1136.48" y2="2102.96"/><line style="stroke: #000000; stroke-width: 1.0;" x1="598" x2="598" y1="103.76" y2="1088.48"/><line style="stroke: #000000; stroke-width: 1.0; stroke-dasharray: 1.0,4.0;" x1="598" x2="598" y1="1088.48" y2="1136.48"/><line style="stroke: #000000; stroke-width: 1.0;" x1="598" x2="598" y1="1136.48" y2="2102.96"/><text fill="#000000" font-family="Noto Sans CJK KR" font-size="12" font-weight="bold" lengthAdjust="spacingAndGlyphs" textLength="33" x="33" y="89.92">사용자</text><ellipse cx="52.5" cy="13" fill="#FEFECE" rx="8" ry="8" style="stroke: #000000; stroke-width: 2.0;"/><path d="M52.5,21 L52.5,48 M39.5,29 L65.5,29 M52.5,48 L39.5,63 M52.5,48 L65.5,63 " fill="none" style="stroke: #000000; stroke-width: 2.0;"/><rect fill="#9EA0CA" height="54.72" rx="5" ry="5" style="stroke: #FFFFFF; stroke-width: 1.5;" width="99" x="229" y="48.04"/><text fill="#FFFFFF" font-family="Noto Sans CJK KR" font-size="14" font-weight="bold" lengthAdjust="spacingAndGlyphs" textLength="65" x="246" y="81.28">클라이언트</text><rect fill="#05D686" height="54.72" rx="5" ry="5" style="stroke: #FFFFFF; stroke-width: 1.5;" width="57" x="570" y="48.04"/><text fill="#FFFFFF" font-family="Noto Sans CJK KR" font-size="14" font-weight="bold" lengthAdjust="spacingAndGlyphs" textLength="23" x="587" y="81.28">CIC</text><rect fill="#FFFFFF" height="69.52" style="stroke: #000000; stroke-width: 1.0;" width="10" x="273.5" y="175.28"/><rect fill="#FFFFFF" height="186.04" style="stroke: #000000; stroke-width: 1.0;" width="10" x="273.5" y="361.32"/><rect fill="#FFFFFF" height="143.28" style="stroke: #000000; stroke-width: 1.0;" width="10" x="273.5" y="616.88"/><rect fill="#FFFFFF" height="194.04" style="stroke: #FFFFFF; stroke-width: 1.0;" width="10" x="273.5" y="894.44"/><line style="stroke: #000000; stroke-width: 1.0;" x1="273.5" x2="273.5" y1="894.44" y2="1088.48"/><line style="stroke: #000000; stroke-width: 1.0;" x1="283.5" x2="283.5" y1="894.44" y2="1088.48"/><line style="stroke: #000000; stroke-width: 1.0;" x1="273.5" x2="283.5" y1="894.44" y2="894.44"/><rect fill="#FFFFFF" height="949.48" style="stroke: #FFFFFF; stroke-width: 1.0;" width="10" x="273.5" y="1136.48"/><line style="stroke: #000000; stroke-width: 1.0;" x1="273.5" x2="273.5" y1="1136.48" y2="2085.96"/><line style="stroke: #000000; stroke-width: 1.0;" x1="283.5" x2="283.5" y1="1136.48" y2="2085.96"/><line style="stroke: #000000; stroke-width: 1.0;" x1="273.5" x2="283.5" y1="2085.96" y2="2085.96"/><rect fill="#FFFFFF" height="116.52" style="stroke: #000000; stroke-width: 1.0;" width="10" x="593.5" y="244.8"/><rect fill="#FFFFFF" height="69.52" style="stroke: #000000; stroke-width: 1.0;" width="10" x="593.5" y="547.36"/><rect fill="#FFFFFF" height="203.8" style="stroke: #000000; stroke-width: 1.0;" width="10" x="593.5" y="760.16"/><rect fill="#FFFFFF" height="30" style="stroke: #000000; stroke-width: 1.0;" width="10" x="593.5" y="1280.52"/><rect fill="#FFFFFF" height="168.04" style="stroke: #000000; stroke-width: 1.0;" width="10" x="593.5" y="1501.32"/><rect fill="#FFFFFF" height="267.32" style="stroke: #000000; stroke-width: 1.0;" width="10" x="593.5" y="1738.88"/><line style="stroke: #000000; stroke-width: 1.0;" x1="271.5" x2="261.5" y1="175.28" y2="171.28"/><line style="stroke: #000000; stroke-width: 1.0;" x1="271.5" x2="261.5" y1="175.28" y2="179.28"/><line style="stroke: #000000; stroke-width: 1.0;" x1="52.5" x2="272.5" y1="175.28" y2="175.28"/><text fill="#000000" font-family="Noto Sans CJK KR" font-size="12" lengthAdjust="spacingAndGlyphs" textLength="75" x="125.5" y="141.68">알람 등록 요청:</text><text fill="#000000" font-family="Noto Sans CJK KR" font-size="12" lengthAdjust="spacingAndGlyphs" textLength="169" x="78.5" y="159.44">"오늘 오후 9 시에 알람 등록해줘."</text><line style="stroke: #000000; stroke-width: 1.0;" x1="591.5" x2="581.5" y1="244.8" y2="240.8"/><line style="stroke: #000000; stroke-width: 1.0;" x1="591.5" x2="581.5" y1="244.8" y2="248.8"/><line style="stroke: #000000; stroke-width: 1.0;" x1="278.5" x2="592.5" y1="244.8" y2="244.8"/><text fill="#000000" font-family="Noto Sans CJK KR" font-size="12" lengthAdjust="spacingAndGlyphs" textLength="83" x="394.5" y="211.2">사용자 요청 전달</text><text fill="#000000" font-family="Noto Sans CJK KR" font-size="12" lengthAdjust="spacingAndGlyphs" textLength="245" x="313.5" y="228.96">(SpeechRecognizer.Recognize 이벤트 메시지)</text><line style="stroke: #000000; stroke-width: 1.0;" x1="603.5" x2="645.5" y1="296.56" y2="296.56"/><line style="stroke: #000000; stroke-width: 1.0;" x1="645.5" x2="645.5" y1="296.56" y2="309.56"/><line style="stroke: #000000; stroke-width: 1.0;" x1="604.5" x2="645.5" y1="309.56" y2="309.56"/><polygon fill="#000000" points="614.5,305.56,604.5,309.56,614.5,313.56,610.5,309.56" style="stroke: #000000; stroke-width: 1.0;"/><text fill="#000000" font-family="Noto Sans CJK KR" font-size="12" lengthAdjust="spacingAndGlyphs" textLength="83" x="620.5" y="280.72">사용자 발화 분석</text><line style="stroke: #000000; stroke-width: 1.0;" x1="283.5" x2="293.5" y1="361.32" y2="357.32"/><line style="stroke: #000000; stroke-width: 1.0;" x1="283.5" x2="293.5" y1="361.32" y2="365.32"/><line style="stroke: #000000; stroke-width: 1.0; stroke-dasharray: 2.0,2.0;" x1="283.5" x2="597.5" y1="361.32" y2="361.32"/><text fill="#000000" font-family="Noto Sans CJK KR" font-size="12" lengthAdjust="spacingAndGlyphs" textLength="168" x="357" y="345.48">Alerts.SetAlert 지시 메시지 전달</text><line style="stroke: #000000; stroke-width: 1.0;" x1="283.5" x2="325.5" y1="413.08" y2="413.08"/><line style="stroke: #000000; stroke-width: 1.0;" x1="325.5" x2="325.5" y1="413.08" y2="426.08"/><line style="stroke: #000000; stroke-width: 1.0;" x1="284.5" x2="325.5" y1="426.08" y2="426.08"/><polygon fill="#000000" points="294.5,422.08,284.5,426.08,294.5,430.08,290.5,426.08" style="stroke: #000000; stroke-width: 1.0;"/><text fill="#000000" font-family="Noto Sans CJK KR" font-size="12" lengthAdjust="spacingAndGlyphs" textLength="141" x="300.5" y="397.24">클라이언트 기기에 알람 등록</text><path d="M18,441.08 L94,441.08 L94,470.08 L84,480.08 L13,480.08 L13,446.08 " fill="#EEEEEE" style="stroke: #000000; stroke-width: 1.0;"/><rect fill="none" height="1644.88" rx="5" ry="5" style="stroke: #000000; stroke-width: 2.0;" width="712.5" x="13" y="441.08"/><text fill="#000000" font-family="Noto Sans CJK KR" font-size="12" font-weight="bold" lengthAdjust="spacingAndGlyphs" textLength="16" x="38" y="466">alt</text><text fill="#000000" font-family="Noto Sans CJK KR" font-size="12" font-weight="bold" lengthAdjust="spacingAndGlyphs" textLength="149" x="119" y="467">[알람 등록 결과 == 등록 실패]</text><line style="stroke: #000000; stroke-width: 1.0;" x1="591.5" x2="581.5" y1="547.36" y2="543.36"/><line style="stroke: #000000; stroke-width: 1.0;" x1="591.5" x2="581.5" y1="547.36" y2="551.36"/><line style="stroke: #000000; stroke-width: 1.0;" x1="278.5" x2="592.5" y1="547.36" y2="547.36"/><text fill="#000000" font-family="Noto Sans CJK KR" font-size="12" lengthAdjust="spacingAndGlyphs" textLength="213" x="329.5" y="531.52">Alerts.SetAlertFailed 이벤트 메시지 전송</text><line style="stroke: #000000; stroke-width: 1.0;" x1="283.5" x2="293.5" y1="616.88" y2="612.88"/><line style="stroke: #000000; stroke-width: 1.0;" x1="283.5" x2="293.5" y1="616.88" y2="620.88"/><line style="stroke: #000000; stroke-width: 1.0; stroke-dasharray: 2.0,2.0;" x1="283.5" x2="597.5" y1="616.88" y2="616.88"/><text fill="#000000" font-family="Noto Sans CJK KR" font-size="12" lengthAdjust="spacingAndGlyphs" textLength="231" x="325.5" y="583.28">SpeechSynthesizer.Speak 지시 메시지 전달</text><text fill="#000000" font-family="Noto Sans CJK KR" font-size="12" lengthAdjust="spacingAndGlyphs" textLength="150" x="366" y="601.04">("알람을 등록하지 못했어요.")</text><line style="stroke: #000000; stroke-width: 1.0;" x1="52.5" x2="62.5" y1="668.64" y2="664.64"/><line style="stroke: #000000; stroke-width: 1.0;" x1="52.5" x2="62.5" y1="668.64" y2="672.64"/><line style="stroke: #000000; stroke-width: 1.0; stroke-dasharray: 2.0,2.0;" x1="52.5" x2="272.5" y1="668.64" y2="668.64"/><text fill="#000000" font-family="Noto Sans CJK KR" font-size="12" lengthAdjust="spacingAndGlyphs" textLength="97" x="114.5" y="652.8">알람 등록 결과 전달</text><line style="stroke: #000000; stroke-width: 1.0; stroke-dasharray: 2.0,2.0;" x1="13" x2="725.5" y1="677.64" y2="677.64"/><text fill="#000000" font-family="Noto Sans CJK KR" font-size="12" font-weight="bold" lengthAdjust="spacingAndGlyphs" textLength="149" x="28" y="701.56">[알람 등록 결과 == 등록 성공]</text><line style="stroke: #000000; stroke-width: 1.0;" x1="591.5" x2="581.5" y1="760.16" y2="756.16"/><line style="stroke: #000000; stroke-width: 1.0;" x1="591.5" x2="581.5" y1="760.16" y2="764.16"/><line style="stroke: #000000; stroke-width: 1.0;" x1="278.5" x2="592.5" y1="760.16" y2="760.16"/><text fill="#000000" font-family="Noto Sans CJK KR" font-size="12" lengthAdjust="spacingAndGlyphs" textLength="240" x="316" y="744.32">Alerts.SetAlertSucceeded 이벤트 메시지 전송</text><line style="stroke: #000000; stroke-width: 1.0;" x1="603.5" x2="645.5" y1="811.92" y2="811.92"/><line style="stroke: #000000; stroke-width: 1.0;" x1="645.5" x2="645.5" y1="811.92" y2="824.92"/><line style="stroke: #000000; stroke-width: 1.0;" x1="604.5" x2="645.5" y1="824.92" y2="824.92"/><polygon fill="#000000" points="614.5,820.92,604.5,824.92,614.5,828.92,610.5,824.92" style="stroke: #000000; stroke-width: 1.0;"/><text fill="#000000" font-family="Noto Sans CJK KR" font-size="12" lengthAdjust="spacingAndGlyphs" textLength="83" x="620.5" y="796.08">사용자 알람 등록</text><line style="stroke: #000000; stroke-width: 1.0;" x1="283.5" x2="293.5" y1="894.44" y2="890.44"/><line style="stroke: #000000; stroke-width: 1.0;" x1="283.5" x2="293.5" y1="894.44" y2="898.44"/><line style="stroke: #000000; stroke-width: 1.0; stroke-dasharray: 2.0,2.0;" x1="283.5" x2="592.5" y1="894.44" y2="894.44"/><text fill="#000000" font-family="Noto Sans CJK KR" font-size="12" lengthAdjust="spacingAndGlyphs" textLength="231" x="323" y="860.84">SpeechSynthesizer.Speak 지시 메시지 전달</text><text fill="#000000" font-family="Noto Sans CJK KR" font-size="12" lengthAdjust="spacingAndGlyphs" textLength="136" x="370.5" y="878.6">("알람이 등록되었습니다.")</text><line style="stroke: #000000; stroke-width: 1.0;" x1="283.5" x2="293.5" y1="963.96" y2="959.96"/><line style="stroke: #000000; stroke-width: 1.0;" x1="283.5" x2="293.5" y1="963.96" y2="967.96"/><line style="stroke: #000000; stroke-width: 1.0; stroke-dasharray: 2.0,2.0;" x1="283.5" x2="597.5" y1="963.96" y2="963.96"/><text fill="#000000" font-family="Noto Sans CJK KR" font-size="12" lengthAdjust="spacingAndGlyphs" textLength="266" x="308" y="930.36">Actiontimer, Alarm, Reminder, Timer 템플릿 전달</text><text fill="#000000" font-family="Noto Sans CJK KR" font-size="12" lengthAdjust="spacingAndGlyphs" textLength="198" x="342" y="948.12">(Clova.RenderTemplate 지시 메시지)</text><line style="stroke: #000000; stroke-width: 1.0;" x1="283.5" x2="325.5" y1="1015.72" y2="1015.72"/><line style="stroke: #000000; stroke-width: 1.0;" x1="325.5" x2="325.5" y1="1015.72" y2="1028.72"/><line style="stroke: #000000; stroke-width: 1.0;" x1="284.5" x2="325.5" y1="1028.72" y2="1028.72"/><polygon fill="#000000" points="294.5,1024.72,284.5,1028.72,294.5,1032.72,290.5,1028.72" style="stroke: #000000; stroke-width: 1.0;"/><text fill="#000000" font-family="Noto Sans CJK KR" font-size="12" lengthAdjust="spacingAndGlyphs" textLength="172" x="300.5" y="999.88">음성 출력 및 등록된 알람 내용 표시</text><line style="stroke: #000000; stroke-width: 1.0;" x1="52.5" x2="62.5" y1="1080.48" y2="1076.48"/><line style="stroke: #000000; stroke-width: 1.0;" x1="52.5" x2="62.5" y1="1080.48" y2="1084.48"/><line style="stroke: #000000; stroke-width: 1.0; stroke-dasharray: 2.0,2.0;" x1="52.5" x2="272.5" y1="1080.48" y2="1080.48"/><text fill="#000000" font-family="Noto Sans CJK KR" font-size="12" lengthAdjust="spacingAndGlyphs" textLength="97" x="114.5" y="1064.64">알람 등록 결과 전달</text><line style="stroke: #000000; stroke-width: 1.0;" x1="283.5" x2="325.5" y1="1180.24" y2="1180.24"/><line style="stroke: #000000; stroke-width: 1.0;" x1="325.5" x2="325.5" y1="1180.24" y2="1193.24"/><line style="stroke: #000000; stroke-width: 1.0;" x1="284.5" x2="325.5" y1="1193.24" y2="1193.24"/><polygon fill="#000000" points="294.5,1189.24,284.5,1193.24,294.5,1197.24,290.5,1193.24" style="stroke: #000000; stroke-width: 1.0;"/><text fill="#000000" font-family="Noto Sans CJK KR" font-size="12" lengthAdjust="spacingAndGlyphs" textLength="47" x="300.5" y="1164.4">알람 시작</text><line style="stroke: #000000; stroke-width: 1.0;" x1="591.5" x2="581.5" y1="1280.52" y2="1276.52"/><line style="stroke: #000000; stroke-width: 1.0;" x1="591.5" x2="581.5" y1="1280.52" y2="1284.52"/><line style="stroke: #000000; stroke-width: 1.0;" x1="283.5" x2="592.5" y1="1280.52" y2="1280.52"/><text fill="#000000" font-family="Noto Sans CJK KR" font-size="12" lengthAdjust="spacingAndGlyphs" textLength="72" x="305.5" y="1229.16">알람 시작 보고</text><text fill="#000000" font-family="Noto Sans CJK KR" font-size="12" lengthAdjust="spacingAndGlyphs" textLength="185" x="305.5" y="1246.92">(Alerts.AlertStarted 이벤트 메시지,</text><text fill="#000000" font-family="Noto Sans CJK KR" font-size="12" lengthAdjust="spacingAndGlyphs" textLength="266" x="305.5" y="1264.68">Alert.AlertsState에 activateAlerts 필드 필수 포함)</text><line style="stroke: #000000; stroke-width: 1.0;" x1="271.5" x2="261.5" y1="1362.28" y2="1358.28"/><line style="stroke: #000000; stroke-width: 1.0;" x1="271.5" x2="261.5" y1="1362.28" y2="1366.28"/><line style="stroke: #000000; stroke-width: 1.0;" x1="52.5" x2="272.5" y1="1362.28" y2="1362.28"/><text fill="#000000" font-family="Noto Sans CJK KR" font-size="12" lengthAdjust="spacingAndGlyphs" textLength="177" x="74.5" y="1346.44">알람 중지 요청 (발화 또는 물리버튼)</text><path d="M224,1377.28 L300,1377.28 L300,1406.28 L290,1416.28 L219,1416.28 L219,1382.28 " fill="#EEEEEE" style="stroke: #000000; stroke-width: 1.0;"/><rect fill="none" height="241.32" rx="5" ry="5" style="stroke: #000000; stroke-width: 2.0;" width="418" x="219" y="1377.28"/><text fill="#000000" font-family="Noto Sans CJK KR" font-size="12" font-weight="bold" lengthAdjust="spacingAndGlyphs" textLength="16" x="244" y="1402.2">alt</text><text fill="#000000" font-family="Noto Sans CJK KR" font-size="12" font-weight="bold" lengthAdjust="spacingAndGlyphs" textLength="185" x="325" y="1403.2">[알람 중지 요청 유형 == 사용자 발화]</text><line style="stroke: #000000; stroke-width: 1.0;" x1="591.5" x2="581.5" y1="1501.32" y2="1497.32"/><line style="stroke: #000000; stroke-width: 1.0;" x1="591.5" x2="581.5" y1="1501.32" y2="1505.32"/><line style="stroke: #000000; stroke-width: 1.0;" x1="283.5" x2="592.5" y1="1501.32" y2="1501.32"/><text fill="#000000" font-family="Noto Sans CJK KR" font-size="12" lengthAdjust="spacingAndGlyphs" textLength="97" x="390" y="1467.72">알람 중지 요청 전달</text><text fill="#000000" font-family="Noto Sans CJK KR" font-size="12" lengthAdjust="spacingAndGlyphs" textLength="245" x="316" y="1485.48">(SpeechRecognizer.Recognize 이벤트 메시지)</text><line style="stroke: #000000; stroke-width: 1.0; stroke-dasharray: 2.0,2.0;" x1="219" x2="637" y1="1510.32" y2="1510.32"/><text fill="#000000" font-family="Noto Sans CJK KR" font-size="12" font-weight="bold" lengthAdjust="spacingAndGlyphs" textLength="174" x="234" y="1534.24">[알람 중지 요청 유형 == 물리 버튼]</text><line style="stroke: #000000; stroke-width: 1.0;" x1="591.5" x2="581.5" y1="1610.6" y2="1606.6"/><line style="stroke: #000000; stroke-width: 1.0;" x1="591.5" x2="581.5" y1="1610.6" y2="1614.6"/><line style="stroke: #000000; stroke-width: 1.0;" x1="283.5" x2="592.5" y1="1610.6" y2="1610.6"/><text fill="#000000" font-family="Noto Sans CJK KR" font-size="12" lengthAdjust="spacingAndGlyphs" textLength="97" x="390" y="1577">알람 중지 요청 전달</text><text fill="#000000" font-family="Noto Sans CJK KR" font-size="12" lengthAdjust="spacingAndGlyphs" textLength="216" x="330.5" y="1594.76">(Alerts.RequestAlertStop 이벤트 메시지)</text><line style="stroke: #000000; stroke-width: 1.0;" x1="283.5" x2="293.5" y1="1669.36" y2="1665.36"/><line style="stroke: #000000; stroke-width: 1.0;" x1="283.5" x2="293.5" y1="1669.36" y2="1673.36"/><line style="stroke: #000000; stroke-width: 1.0; stroke-dasharray: 2.0,2.0;" x1="283.5" x2="597.5" y1="1669.36" y2="1669.36"/><text fill="#000000" font-family="Noto Sans CJK KR" font-size="12" lengthAdjust="spacingAndGlyphs" textLength="175" x="353.5" y="1653.52">Alerts.StopAlert 지시 메시지 전달</text><line style="stroke: #000000; stroke-width: 1.0;" x1="591.5" x2="581.5" y1="1738.88" y2="1734.88"/><line style="stroke: #000000; stroke-width: 1.0;" x1="591.5" x2="581.5" y1="1738.88" y2="1742.88"/><line style="stroke: #000000; stroke-width: 1.0;" x1="283.5" x2="592.5" y1="1738.88" y2="1738.88"/><text fill="#000000" font-family="Noto Sans CJK KR" font-size="12" lengthAdjust="spacingAndGlyphs" textLength="97" x="390" y="1705.28">알람 중지 결과 보고</text><text fill="#000000" font-family="Noto Sans CJK KR" font-size="12" lengthAdjust="spacingAndGlyphs" textLength="190" x="343.5" y="1723.04">(Alerts.AlertStopped 이벤트 메시지)</text><path d="M224,1753.88 L305,1753.88 L305,1782.88 L295,1792.88 L219,1792.88 L219,1758.88 " fill="#EEEEEE" style="stroke: #000000; stroke-width: 1.0;"/><rect fill="none" height="132.04" rx="5" ry="5" style="stroke: #000000; stroke-width: 2.0;" width="418" x="219" y="1753.88"/><text fill="#000000" font-family="Noto Sans CJK KR" font-size="12" font-weight="bold" lengthAdjust="spacingAndGlyphs" textLength="21" x="244" y="1778.8">opt</text><text fill="#000000" font-family="Noto Sans CJK KR" font-size="12" font-weight="bold" lengthAdjust="spacingAndGlyphs" textLength="113" x="330" y="1779.8">[반복 알람 여부 == 네]</text><line style="stroke: #000000; stroke-width: 1.0;" x1="283.5" x2="293.5" y1="1877.92" y2="1873.92"/><line style="stroke: #000000; stroke-width: 1.0;" x1="283.5" x2="293.5" y1="1877.92" y2="1881.92"/><line style="stroke: #000000; stroke-width: 1.0; stroke-dasharray: 2.0,2.0;" x1="283.5" x2="592.5" y1="1877.92" y2="1877.92"/><text fill="#000000" font-family="Noto Sans CJK KR" font-size="12" lengthAdjust="spacingAndGlyphs" textLength="97" x="390" y="1844.32">다음 반복 알람 전달</text><text fill="#000000" font-family="Noto Sans CJK KR" font-size="12" lengthAdjust="spacingAndGlyphs" textLength="151" x="363" y="1862.08">(Alerts.SetAlert 지시 메시지)</text><path d="M224,1899.92 L305,1899.92 L305,1928.92 L295,1938.92 L219,1938.92 L219,1904.92 " fill="#EEEEEE" style="stroke: #000000; stroke-width: 1.0;"/><rect fill="none" height="179.04" rx="5" ry="5" style="stroke: #000000; stroke-width: 2.0;" width="418" x="219" y="1899.92"/><text fill="#000000" font-family="Noto Sans CJK KR" font-size="12" font-weight="bold" lengthAdjust="spacingAndGlyphs" textLength="21" x="244" y="1924.84">opt</text><text fill="#000000" font-family="Noto Sans CJK KR" font-size="12" font-weight="bold" lengthAdjust="spacingAndGlyphs" textLength="132" x="330" y="1925.84">[알람 종류 == 액션타이머]</text><line style="stroke: #000000; stroke-width: 1.0;" x1="283.5" x2="293.5" y1="2006.2" y2="2002.2"/><line style="stroke: #000000; stroke-width: 1.0;" x1="283.5" x2="293.5" y1="2006.2" y2="2010.2"/><line style="stroke: #000000; stroke-width: 1.0; stroke-dasharray: 2.0,2.0;" x1="283.5" x2="597.5" y1="2006.2" y2="2006.2"/><text fill="#000000" font-family="Noto Sans CJK KR" font-size="12" lengthAdjust="spacingAndGlyphs" textLength="249" x="316.5" y="1990.36">사용자가 예약한 동작을 수행하는 지시 메시지 전달</text><line style="stroke: #000000; stroke-width: 1.0;" x1="283.5" x2="325.5" y1="2057.96" y2="2057.96"/><line style="stroke: #000000; stroke-width: 1.0;" x1="325.5" x2="325.5" y1="2057.96" y2="2070.96"/><line style="stroke: #000000; stroke-width: 1.0;" x1="284.5" x2="325.5" y1="2070.96" y2="2070.96"/><polygon fill="#000000" points="294.5,2066.96,284.5,2070.96,294.5,2074.96,290.5,2070.96" style="stroke: #000000; stroke-width: 1.0;"/><text fill="#000000" font-family="Noto Sans CJK KR" font-size="12" lengthAdjust="spacingAndGlyphs" textLength="83" x="300.5" y="2042.12">예약된 동작 수행</text><!--
@startuml
scale max 880 width
skinparam sequenceMessageAlign center
skinparam shadowing false
skinparam roundcorner 10
skinparam padding 10
skinparam defaultFontSize 12
skinparam defaultFontName "Noto Sans CJK KR"

skinparam note {
  BackgroundColor #9EA0CA
  BorderColor #ffffff
  FontColor #ffffff
  FontSize 14
  FontStyle bold
}

skinparam sequence {
  ArrowColor #000000
  ActorBorderColor #000000
  ActorFontStyle Bolder


  LifeLineBorderColor #000000
  LifeLineBackgroundColor transparent
  ParticipantBorderColor transparent
  ParticipantFontSize 14
  ParticipantFontColor #ffffff
  ParticipantFontStyle bold

  BoxBorderColor #000000
  BoxFontColor #ffffff
    BoxFontSize 14
    BoxFontStyle bold
}
hide footbox

skinparam activity {
  BackgroundColor #9EA0CA
  BarColor #ffffff
  BorderColor #ffffff
  DiamondBackgroundColor #05D686
  DiamondBorderColor #ffffff
  DiamondFontColor #ffffff
  DiamondFontSize 14
  DiamondFontStyle bold
  FontColor #ffffff 
  FontSize 14
  FontStyle bold
}

actor 사용자 as user
participant 클라이언트 as client #9EA0CA
participant CIC as cic #05D686

user ->> client : 알람 등록 요청:\n"오늘 오후 9 시에 알람 등록해줘."

activate client
  client ->> cic : 사용자 요청 전달\n(SpeechRecognizer.Recognize 이벤트 메시지)
deactivate client

activate cic
  cic -> cic : 사용자 발화 분석
  cic - ->> client : Alerts.SetAlert 지시 메시지 전달
deactivate cic

activate client
  client -> client : 클라이언트 기기에 알람 등록

alt 알람 등록 결과 == 등록 실패

  client ->> cic : Alerts.SetAlertFailed 이벤트 메시지 전송
  deactivate client
  activate cic

    cic - ->> client : SpeechSynthesizer.Speak 지시 메시지 전달\n("알람을 등록하지 못했어요.")
  deactivate cic
  activate client
    client - ->> user : 알람 등록 결과 전달

else 알람 등록 결과 == 등록 성공

  client ->> cic : Alerts.SetAlertSucceeded 이벤트 메시지 전송

deactivate client

activate cic
  cic -> cic : 사용자 알람 등록
  cic - ->> client : SpeechSynthesizer.Speak 지시 메시지 전달\n("알람이 등록되었습니다.")
activate client
  cic - ->> client :  Actiontimer, Alarm, Reminder, Timer 템플릿 전달\n(Clova.RenderTemplate 지시 메시지)
deactivate cic

  client -> client : 음성 출력 및 등록된 알람 내용 표시
  client - ->> user : 알람 등록 결과 전달


...

  client -> client : 알람 시작
  client ->> cic : 알람 시작 보고\n(Alerts.AlertStarted 이벤트 메시지,\lAlert.AlertsState에 activateAlerts 필드 필수 포함)

  activate cic
  deactivate cic

  user ->> client : 알람 중지 요청 (발화 또는 물리버튼)

  alt 알람 중지 요청 유형 == 사용자 발화

    client ->> cic : 알람 중지 요청 전달\n(SpeechRecognizer.Recognize 이벤트 메시지)

  activate cic

  else 알람 중지 요청 유형 == 물리 버튼

    client ->> cic : 알람 중지 요청 전달\n(Alerts.RequestAlertStop 이벤트 메시지)

  end

  cic - ->> client : Alerts.StopAlert 지시 메시지 전달

  deactivate cic

  client ->> cic : 알람 중지 결과 보고\n(Alerts.AlertStopped 이벤트 메시지)
  activate cic

    opt 반복 알람 여부 == 네

      cic - ->> client : 다음 반복 알람 전달\n(Alerts.SetAlert 지시 메시지)

    end

    opt 알람 종류 == 액션타이머

      cic - ->> client : 사용자가 예약한 동작을 수행하는 지시 메시지 전달

    deactivate cic

      client -> client : 예약된 동작 수행

    end

  deactivate client
  deactivate cic

  end

@enduml

PlantUML version 1.2019.06(Sat May 25 02:10:25 KST 2019)
(GPL source distribution)
Java Runtime: OpenJDK Runtime Environment
JVM: OpenJDK 64-Bit Server VM
Java Version: 11+28
Operating System: Mac OS X
OS Version: 10.14.5
Default Encoding: US-ASCII
Language: en
Country: KR
--></g></svg>